<?xml version="1.0" standalone="no"?>
<!DOCTYPE svg PUBLIC "-//W3C//DTD SVG 20010904//EN"
 "http://www.w3.org/TR/2001/REC-SVG-20010904/DTD/svg10.dtd">
<svg version="1.0" xmlns="http://www.w3.org/2000/svg"
 width="132.000000pt" height="132.000000pt" viewBox="0 0 132.000000 132.000000"
 preserveAspectRatio="xMidYMid meet">
<metadata>
Created by potrace 1.11, written by Peter Selinger 2001-2013
</metadata>
<g transform="translate(0.000000,132.000000) scale(0.100000,-0.100000)"
fill="#000000" stroke="none">
<path d="M54 1309 c-11 -6 -28 -23 -37 -39 -15 -25 -17 -84 -17 -610 0 -525 2
-585 17 -610 9 -16 27 -33 40 -39 33 -15 1173 -15 1206 0 13 6 31 23 40 39 15
25 17 85 17 610 0 525 -2 585 -17 610 -9 16 -27 33 -40 39 -32 15 -1179 14
-1209 0z"/>
</g>
</svg>
