<svg id="svg" version="1.1" width="400" height="400" viewBox="0 0 400 400" xmlns="http://www.w3.org/2000/svg" xmlns:xlink="http://www.w3.org/1999/xlink" ><g id="svgg"><path id="path0" d="M178.400 92.881 C 169.052 96.446,157.103 112.042,158.808 118.452 C 161.095 127.051,169.182 127.175,174.388 118.691 C 181.913 106.424,183.540 105.905,195.400 111.982 C 206.802 117.825,211.812 117.832,220.376 112.016 C 223.975 109.573,228.169 108.052,231.417 108.014 C 233.105 107.994,236.466 111.590,241.123 118.400 C 243.862 122.406,243.976 122.536,245.762 123.749 C 250.651 127.066,258.400 122.830,258.400 116.839 C 258.400 112.365,248.704 99.335,242.126 94.968 C 234.369 89.819,223.359 91.175,211.415 98.750 C 208.789 100.415,207.970 100.339,204.160 98.072 C 194.724 92.459,184.768 90.452,178.400 92.881 " stroke="none" fill="#000000" fill-rule="evenodd"></path><path id="path1" d="M180.102 91.776 C 173.123 93.467,164.383 101.914,159.178 112.000 C 155.883 118.383,160.065 125.589,166.786 125.108 C 170.639 124.832,171.906 123.935,174.460 119.674 C 181.082 108.626,183.593 107.152,190.688 110.149 C 193.927 111.517,194.384 111.460,191.600 110.035 C 184.014 106.152,181.217 107.558,174.388 118.691 C 170.663 124.763,166.948 126.369,162.570 123.804 C 158.040 121.149,157.383 115.798,160.880 110.027 C 172.608 90.671,185.659 87.066,204.160 98.072 C 207.970 100.339,208.789 100.415,211.415 98.750 C 223.359 91.175,234.369 89.819,242.126 94.968 C 248.704 99.335,258.400 112.365,258.400 116.839 C 258.400 122.830,250.651 127.066,245.762 123.749 C 243.976 122.536,243.862 122.406,241.123 118.400 C 236.466 111.590,233.105 107.994,231.417 108.014 C 229.796 108.033,226.138 108.940,224.400 109.753 C 222.883 110.463,223.395 110.395,226.800 109.432 C 232.370 107.856,233.351 108.478,239.996 117.800 C 246.163 126.452,250.811 127.991,255.935 123.080 C 260.350 118.848,259.973 115.430,254.160 107.000 C 242.198 89.653,229.922 86.895,212.233 97.580 C 208.123 100.063,208.717 100.092,203.692 97.156 C 195.531 92.385,186.288 90.278,180.102 91.776 M330.979 130.300 C 323.077 146.444,310.892 156.771,296.800 159.270 C 290.821 160.329,281.143 160.073,276.870 158.741 C 275.082 158.184,275.010 158.353,275.786 161.275 C 277.566 167.974,278.086 169.907,278.454 171.200 C 278.674 171.970,279.007 173.230,279.195 174.000 C 279.550 175.456,281.006 180.915,281.594 183.000 C 281.780 183.660,282.384 185.910,282.937 188.000 C 283.489 190.090,284.238 192.880,284.602 194.200 C 286.062 199.501,286.886 202.654,287.081 203.687 C 287.356 205.140,288.627 205.522,289.570 204.434 C 289.968 203.975,290.512 203.600,290.778 203.600 C 291.045 203.600,291.954 202.880,292.800 202.000 C 293.646 201.120,294.533 200.400,294.773 200.400 C 295.338 200.400,304.400 191.343,304.400 190.778 C 304.400 190.542,305.300 189.471,306.400 188.400 C 307.500 187.329,308.400 186.242,308.400 185.986 C 308.400 185.730,308.940 185.017,309.600 184.400 C 310.260 183.783,310.800 183.063,310.800 182.800 C 310.800 182.537,311.340 181.817,312.000 181.200 C 312.660 180.583,313.200 179.831,313.200 179.528 C 313.200 179.225,313.560 178.717,314.000 178.400 C 314.440 178.083,314.800 177.543,314.800 177.200 C 314.800 176.857,315.160 176.317,315.600 176.000 C 316.040 175.683,316.400 175.103,316.400 174.712 C 316.400 174.320,316.580 174.000,316.800 174.000 C 317.020 174.000,317.200 173.680,317.200 173.288 C 317.200 172.897,317.560 172.317,318.000 172.000 C 318.440 171.683,318.800 171.103,318.800 170.712 C 318.800 170.320,318.980 170.000,319.200 170.000 C 319.420 170.000,319.600 169.680,319.600 169.288 C 319.600 168.897,319.960 168.317,320.400 168.000 C 320.840 167.683,321.200 167.103,321.200 166.712 C 321.200 166.320,321.380 166.000,321.600 166.000 C 321.820 166.000,322.000 165.640,322.000 165.200 C 322.000 164.760,322.180 164.400,322.400 164.400 C 322.620 164.400,322.800 164.040,322.800 163.600 C 322.800 163.160,322.980 162.800,323.200 162.800 C 323.420 162.800,323.600 162.440,323.600 162.000 C 323.600 161.560,323.780 161.200,324.000 161.200 C 324.220 161.200,324.400 160.840,324.400 160.400 C 324.400 159.960,324.580 159.600,324.800 159.600 C 325.020 159.600,325.200 159.240,325.200 158.800 C 325.200 158.360,325.380 158.000,325.600 158.000 C 325.820 158.000,326.000 157.460,326.000 156.800 C 326.000 156.140,326.180 155.600,326.400 155.600 C 326.620 155.600,326.800 155.240,326.800 154.800 C 326.800 154.360,326.980 154.000,327.200 154.000 C 327.420 154.000,327.600 153.640,327.600 153.200 C 327.600 152.760,327.780 152.400,328.000 152.400 C 328.220 152.400,328.400 151.860,328.400 151.200 C 328.400 150.540,328.580 150.000,328.800 150.000 C 329.020 150.000,329.200 149.460,329.200 148.800 C 329.200 148.140,329.380 147.600,329.600 147.600 C 329.820 147.600,330.000 147.060,330.000 146.400 C 330.000 145.740,330.180 145.200,330.400 145.200 C 330.620 145.200,330.800 144.660,330.800 144.000 C 330.800 143.340,330.980 142.800,331.200 142.800 C 331.420 142.800,331.600 142.080,331.600 141.200 C 331.600 140.320,331.780 139.600,332.000 139.600 C 332.220 139.600,332.400 138.880,332.400 138.000 C 332.400 137.120,332.580 136.400,332.800 136.400 C 333.022 136.400,333.200 135.333,333.200 134.000 C 333.200 132.667,333.378 131.600,333.600 131.600 C 333.831 131.600,334.000 130.333,334.000 128.600 C 334.000 124.602,333.680 124.782,330.979 130.300 M130.214 195.652 C 101.184 232.003,78.904 246.506,68.585 235.767 C 66.038 233.116,66.000 233.114,66.000 235.624 C 66.000 236.871,66.153 237.552,66.400 237.400 C 66.638 237.253,66.800 237.729,66.800 238.576 C 66.800 239.359,66.980 240.000,67.200 240.000 C 67.420 240.000,67.600 240.341,67.600 240.757 C 67.600 241.174,67.881 241.622,68.225 241.754 C 68.569 241.886,68.740 242.173,68.605 242.392 C 68.470 242.610,69.000 243.352,69.783 244.039 C 70.566 244.727,71.326 245.762,71.471 246.341 C 71.789 247.608,72.520 248.400,73.371 248.400 C 73.717 248.400,74.000 248.580,74.000 248.800 C 74.000 249.020,74.360 249.200,74.800 249.200 C 75.240 249.200,75.600 249.380,75.600 249.600 C 75.600 249.820,76.320 250.000,77.200 250.000 C 78.080 250.000,78.800 250.180,78.800 250.400 C 78.800 250.646,80.800 250.800,84.000 250.800 C 87.200 250.800,89.200 250.646,89.200 250.400 C 89.200 250.171,90.400 250.000,92.000 250.000 C 93.600 250.000,94.800 249.829,94.800 249.600 C 94.800 249.380,95.700 249.200,96.800 249.200 C 97.900 249.200,98.800 249.020,98.800 248.800 C 98.800 248.580,99.520 248.400,100.400 248.400 C 101.280 248.400,102.000 248.220,102.000 248.000 C 102.000 247.780,102.720 247.600,103.600 247.600 C 104.480 247.600,105.200 247.420,105.200 247.200 C 105.200 246.980,105.920 246.800,106.800 246.800 C 107.680 246.800,108.400 246.620,108.400 246.400 C 108.400 246.180,109.019 246.000,109.776 246.000 C 110.533 246.000,111.264 245.820,111.400 245.600 C 111.536 245.380,112.177 245.200,112.824 245.200 C 113.471 245.200,114.000 245.020,114.000 244.800 C 114.000 244.580,114.439 244.400,114.976 244.400 C 115.513 244.400,116.064 244.220,116.200 244.000 C 116.336 243.780,116.797 243.600,117.224 243.600 C 117.651 243.600,118.000 243.420,118.000 243.200 C 118.000 242.980,118.504 242.800,119.120 242.800 C 120.444 242.800,121.200 242.154,121.200 241.023 C 121.200 240.573,123.823 229.713,127.029 216.890 C 130.235 204.067,132.793 193.379,132.713 193.139 C 132.633 192.900,131.508 194.030,130.214 195.652 " stroke="none" fill="#6a1b9a" fill-rule="evenodd"></path><path id="path2" d="M220.029 112.255 C 212.370 117.413,206.607 117.634,197.552 113.119 C 195.435 112.064,193.275 111.208,192.752 111.218 C 191.961 111.232,192.037 111.324,193.200 111.764 C 193.970 112.055,196.490 113.196,198.800 114.299 C 205.110 117.315,207.601 117.740,212.110 116.571 C 215.520 115.688,224.557 110.800,222.781 110.800 C 222.456 110.800,221.217 111.455,220.029 112.255 M181.600 118.200 C 180.628 119.190,179.923 120.000,180.033 120.000 C 180.143 120.000,181.028 119.190,182.000 118.200 C 182.972 117.210,183.677 116.400,183.567 116.400 C 183.457 116.400,182.572 117.210,181.600 118.200 M204.800 125.265 C 197.527 126.288,190.777 130.794,191.870 133.897 C 194.501 141.361,211.932 144.172,220.600 138.530 C 226.213 134.877,226.044 131.128,220.120 127.904 C 217.010 126.211,210.461 124.578,207.871 124.849 C 207.612 124.877,206.230 125.063,204.800 125.265 M241.050 136.850 C 240.717 138.517,241.040 138.840,241.400 137.200 C 241.552 136.509,241.593 135.859,241.491 135.758 C 241.389 135.656,241.191 136.147,241.050 136.850 M175.206 137.033 C 175.209 137.455,175.395 138.070,175.618 138.400 C 175.915 138.838,175.952 138.676,175.756 137.800 C 175.427 136.329,175.198 136.010,175.206 137.033 M204.305 158.283 C 204.802 158.379,205.522 158.375,205.905 158.275 C 206.287 158.175,205.880 158.096,205.000 158.101 C 204.120 158.105,203.807 158.187,204.305 158.283 M211.105 158.283 C 211.602 158.379,212.322 158.375,212.705 158.275 C 213.087 158.175,212.680 158.096,211.800 158.101 C 210.920 158.105,210.607 158.187,211.105 158.283 M199.200 175.620 C 198.526 175.849,198.851 175.884,200.200 175.728 C 201.300 175.601,202.275 175.431,202.367 175.349 C 202.682 175.068,200.199 175.280,199.200 175.620 M220.600 176.400 C 221.040 176.589,221.670 176.744,222.000 176.744 C 222.378 176.744,222.304 176.617,221.800 176.400 C 221.360 176.211,220.730 176.056,220.400 176.056 C 220.022 176.056,220.096 176.183,220.600 176.400 M181.500 181.429 C 180.005 182.240,180.096 182.578,181.600 181.800 C 182.260 181.459,182.800 181.094,182.800 180.990 C 182.800 180.732,182.757 180.747,181.500 181.429 M242.200 187.200 C 243.506 188.520,244.665 189.600,244.775 189.600 C 244.885 189.600,243.906 188.520,242.600 187.200 C 241.294 185.880,240.135 184.800,240.025 184.800 C 239.915 184.800,240.894 185.880,242.200 187.200 M203.400 191.978 C 199.855 192.433,196.386 193.190,194.800 193.856 C 186.531 197.325,182.279 201.797,183.559 205.676 C 184.367 208.124,190.741 213.600,192.782 213.600 C 193.144 213.600,193.611 213.771,193.820 213.979 C 197.087 217.241,216.727 217.251,223.215 213.994 C 223.647 213.777,224.405 213.388,224.900 213.129 C 225.395 212.870,226.230 212.433,226.755 212.158 C 238.418 206.050,233.700 196.895,216.600 192.452 C 214.430 191.889,206.355 191.598,203.400 191.978 M249.734 204.000 C 249.734 205.650,249.805 206.325,249.891 205.500 C 249.978 204.675,249.978 203.325,249.891 202.500 C 249.805 201.675,249.734 202.350,249.734 204.000 M166.493 204.000 C 166.493 204.770,166.575 205.085,166.676 204.700 C 166.776 204.315,166.776 203.685,166.676 203.300 C 166.575 202.915,166.493 203.230,166.493 204.000 M242.378 221.100 L 241.000 222.600 242.500 221.222 C 243.896 219.938,244.184 219.600,243.878 219.600 C 243.812 219.600,243.137 220.275,242.378 221.100 M197.200 232.400 C 197.750 232.576,198.560 232.720,199.000 232.720 C 199.633 232.720,199.592 232.654,198.800 232.400 C 198.250 232.224,197.440 232.080,197.000 232.080 C 196.367 232.080,196.408 232.146,197.200 232.400 M202.700 233.082 C 203.195 233.178,204.005 233.178,204.500 233.082 C 204.995 232.987,204.590 232.909,203.600 232.909 C 202.610 232.909,202.205 232.987,202.700 233.082 M212.305 233.083 C 212.802 233.179,213.522 233.175,213.905 233.075 C 214.287 232.975,213.880 232.896,213.000 232.901 C 212.120 232.905,211.807 232.987,212.305 233.083 M207.300 233.487 C 207.905 233.578,208.895 233.578,209.500 233.487 C 210.105 233.395,209.610 233.320,208.400 233.320 C 207.190 233.320,206.695 233.395,207.300 233.487 M205.282 250.296 C 206.758 250.373,209.278 250.373,210.882 250.297 C 212.487 250.221,211.280 250.158,208.200 250.158 C 205.120 250.157,203.807 250.219,205.282 250.296 M196.800 250.800 C 195.456 251.231,196.908 251.231,198.600 250.800 C 199.678 250.526,199.698 250.494,198.800 250.487 C 198.250 250.483,197.350 250.624,196.800 250.800 M240.400 257.779 C 240.400 257.889,240.940 258.259,241.600 258.600 C 242.260 258.941,242.800 259.131,242.800 259.021 C 242.800 258.911,242.260 258.541,241.600 258.200 C 240.940 257.859,240.400 257.669,240.400 257.779 M167.775 263.700 L 166.600 265.000 167.900 263.825 C 169.112 262.730,169.384 262.400,169.075 262.400 C 169.006 262.400,168.421 262.985,167.775 263.700 M204.200 266.866 C 186.119 268.190,171.573 278.225,175.823 286.444 C 181.950 298.292,210.425 304.052,227.000 296.795 C 227.880 296.410,229.213 295.860,229.963 295.573 C 235.587 293.419,241.600 287.190,241.600 283.517 C 241.600 276.184,229.319 268.644,215.000 267.185 C 209.072 266.582,208.366 266.561,204.200 266.866 M158.468 286.600 C 158.462 287.040,158.611 287.760,158.800 288.200 C 159.238 289.219,159.238 288.168,158.800 286.800 C 158.543 285.996,158.477 285.957,158.468 286.600 M165.600 300.925 C 165.600 300.994,166.185 301.579,166.900 302.225 L 168.200 303.400 167.025 302.100 C 165.930 300.888,165.600 300.616,165.600 300.925 M224.200 314.800 C 223.696 315.017,223.622 315.144,224.000 315.144 C 224.330 315.144,224.960 314.989,225.400 314.800 C 225.904 314.583,225.978 314.456,225.600 314.456 C 225.270 314.456,224.640 314.611,224.200 314.800 M195.400 315.600 C 195.840 315.789,196.560 315.938,197.000 315.932 C 197.643 315.923,197.604 315.857,196.800 315.600 C 195.432 315.162,194.381 315.162,195.400 315.600 M200.500 316.276 C 200.885 316.376,201.515 316.376,201.900 316.276 C 202.285 316.175,201.970 316.093,201.200 316.093 C 200.430 316.093,200.115 316.175,200.500 316.276 M205.500 316.697 C 207.095 316.773,209.705 316.773,211.300 316.697 C 212.895 316.621,211.590 316.559,208.400 316.559 C 205.210 316.559,203.905 316.621,205.500 316.697 M103.862 333.300 C 103.964 333.465,151.186 333.600,208.800 333.600 C 266.414 333.600,313.636 333.465,313.738 333.300 C 313.840 333.135,266.618 333.000,208.800 333.000 C 150.982 333.000,103.760 333.135,103.862 333.300 " stroke="none" fill="#558b2f" fill-rule="evenodd"></path><path id="path3" d="M205.400 32.800 C 205.264 33.020,204.184 33.200,203.000 33.200 C 201.816 33.200,200.736 33.380,200.600 33.600 C 200.464 33.820,199.823 34.000,199.176 34.000 C 198.529 34.000,198.000 34.180,198.000 34.400 C 198.000 34.620,197.561 34.800,197.024 34.800 C 196.487 34.800,195.936 34.980,195.800 35.200 C 195.664 35.420,195.243 35.600,194.865 35.600 C 194.486 35.600,193.917 35.960,193.600 36.400 C 193.283 36.840,192.743 37.200,192.400 37.200 C 192.057 37.200,191.517 37.560,191.200 38.000 C 190.883 38.440,190.399 38.800,190.124 38.800 C 189.541 38.800,180.400 47.839,180.400 48.416 C 180.400 48.631,179.860 49.372,179.200 50.063 C 178.540 50.754,178.000 51.522,178.000 51.771 C 178.000 52.020,177.640 52.483,177.200 52.800 C 176.760 53.117,176.400 53.657,176.400 54.000 C 176.400 54.343,176.040 54.883,175.600 55.200 C 175.160 55.517,174.800 56.014,174.800 56.305 C 174.800 56.596,174.440 57.220,174.000 57.692 C 173.560 58.164,173.200 58.787,173.200 59.075 C 173.200 59.364,173.020 59.600,172.800 59.600 C 172.580 59.600,172.400 59.960,172.400 60.400 C 172.400 60.840,172.220 61.200,172.000 61.200 C 171.780 61.200,171.600 61.520,171.600 61.912 C 171.600 62.303,171.240 62.883,170.800 63.200 C 170.360 63.517,170.000 63.990,170.000 64.251 C 170.000 64.851,168.300 68.155,167.900 68.333 C 167.735 68.407,167.600 68.812,167.600 69.233 C 167.600 69.655,167.420 70.000,167.200 70.000 C 166.980 70.000,166.800 70.540,166.800 71.200 C 166.800 71.860,166.620 72.400,166.400 72.400 C 166.180 72.400,166.000 72.760,166.000 73.200 C 166.000 73.640,165.820 74.000,165.600 74.000 C 165.380 74.000,165.200 74.265,165.200 74.588 C 165.200 74.911,164.840 75.817,164.400 76.600 C 163.960 77.383,163.600 78.379,163.600 78.812 C 163.600 79.245,163.420 79.600,163.200 79.600 C 162.980 79.600,162.800 79.834,162.800 80.120 C 162.800 80.856,161.859 82.793,161.500 82.797 C 161.335 82.799,161.200 83.329,161.200 83.976 C 161.200 84.623,161.020 85.264,160.800 85.400 C 160.580 85.536,160.400 86.087,160.400 86.624 C 160.400 87.161,160.220 87.600,160.000 87.600 C 159.780 87.600,159.600 87.960,159.600 88.400 C 159.600 88.840,159.420 89.200,159.200 89.200 C 158.980 89.200,158.800 89.740,158.800 90.400 C 158.800 91.060,158.620 91.600,158.400 91.600 C 158.180 91.600,158.000 91.960,158.000 92.400 C 158.000 92.840,157.820 93.200,157.600 93.200 C 157.380 93.200,157.200 93.729,157.200 94.376 C 157.200 95.023,157.020 95.664,156.800 95.800 C 156.580 95.936,156.400 96.487,156.400 97.024 C 156.400 97.561,156.220 98.000,156.000 98.000 C 155.780 98.000,155.600 98.529,155.600 99.176 C 155.600 99.823,155.420 100.464,155.200 100.600 C 154.980 100.736,154.800 101.276,154.800 101.800 C 154.800 102.324,154.620 102.864,154.400 103.000 C 154.180 103.136,154.000 103.676,154.000 104.200 C 154.000 104.724,153.820 105.264,153.600 105.400 C 153.380 105.536,153.200 106.076,153.200 106.600 C 153.200 107.124,153.020 107.664,152.800 107.800 C 152.580 107.936,152.400 108.476,152.400 109.000 C 152.400 109.524,152.220 110.064,152.000 110.200 C 151.780 110.336,151.600 110.966,151.600 111.600 C 151.600 112.234,151.420 112.864,151.200 113.000 C 150.980 113.136,150.800 113.777,150.800 114.424 C 150.800 115.071,150.620 115.600,150.400 115.600 C 150.180 115.600,150.000 116.140,150.000 116.800 C 150.000 117.460,149.820 118.000,149.600 118.000 C 149.380 118.000,149.200 118.540,149.200 119.200 C 149.200 119.860,149.020 120.400,148.800 120.400 C 148.580 120.400,148.400 121.120,148.400 122.000 C 148.400 122.880,148.220 123.600,148.000 123.600 C 147.780 123.600,147.600 124.140,147.600 124.800 C 147.600 125.460,147.420 126.000,147.200 126.000 C 146.980 126.000,146.800 126.720,146.800 127.600 C 146.800 128.480,146.620 129.200,146.400 129.200 C 146.180 129.200,146.000 129.729,146.000 130.376 C 146.000 131.023,145.820 131.664,145.600 131.800 C 145.380 131.936,145.200 132.656,145.200 133.400 C 145.200 134.144,145.020 134.864,144.800 135.000 C 144.580 135.136,144.400 135.687,144.400 136.224 C 144.400 136.761,144.220 137.200,144.000 137.200 C 143.780 137.200,143.600 137.920,143.600 138.800 C 143.600 139.680,143.420 140.400,143.200 140.400 C 142.980 140.400,142.800 141.109,142.800 141.976 C 142.800 142.843,142.620 143.664,142.400 143.800 C 142.180 143.936,142.000 144.656,142.000 145.400 C 142.000 146.144,141.820 146.864,141.600 147.000 C 141.380 147.136,141.200 147.687,141.200 148.224 C 141.200 148.761,141.020 149.200,140.800 149.200 C 140.580 149.200,140.400 149.999,140.400 150.976 C 140.400 151.953,140.220 152.864,140.000 153.000 C 139.780 153.136,139.600 153.957,139.600 154.824 C 139.600 155.691,139.420 156.400,139.200 156.400 C 138.980 156.400,138.800 157.120,138.800 158.000 C 138.800 158.880,138.620 159.600,138.400 159.600 C 138.180 159.600,138.000 160.320,138.000 161.200 C 138.000 162.080,137.820 162.800,137.600 162.800 C 137.380 162.800,137.200 163.480,137.200 164.312 C 137.200 165.365,136.957 165.998,136.400 166.400 C 135.960 166.717,135.600 167.389,135.600 167.892 C 135.600 168.395,135.060 169.372,134.400 170.063 C 133.740 170.754,133.200 171.476,133.200 171.668 C 133.200 172.131,128.920 176.400,128.456 176.400 C 128.257 176.400,127.001 177.480,125.664 178.800 C 124.328 180.120,123.073 181.200,122.877 181.200 C 122.680 181.200,121.954 181.740,121.263 182.400 C 120.572 183.060,119.808 183.600,119.564 183.600 C 119.320 183.600,118.617 184.140,118.000 184.800 C 117.383 185.460,116.708 186.000,116.499 186.000 C 116.290 186.000,115.554 186.540,114.863 187.200 C 114.172 187.860,113.375 188.400,113.092 188.400 C 112.809 188.400,112.317 188.760,112.000 189.200 C 111.683 189.640,111.227 190.000,110.987 190.000 C 110.747 190.000,110.202 190.315,109.775 190.700 C 109.349 191.085,108.505 191.655,107.900 191.968 C 107.295 192.280,106.800 192.685,106.800 192.868 C 106.800 193.050,106.480 193.200,106.088 193.200 C 105.697 193.200,105.117 193.560,104.800 194.000 C 104.483 194.440,103.903 194.800,103.512 194.800 C 103.120 194.800,102.800 194.980,102.800 195.200 C 102.800 195.420,102.528 195.600,102.196 195.600 C 101.864 195.600,101.028 196.140,100.337 196.800 C 99.646 197.460,98.878 198.000,98.629 198.000 C 98.380 198.000,97.917 198.360,97.600 198.800 C 97.283 199.240,96.743 199.600,96.400 199.600 C 96.057 199.600,95.517 199.960,95.200 200.400 C 94.883 200.840,94.343 201.200,94.000 201.200 C 93.657 201.200,93.117 201.560,92.800 202.000 C 92.483 202.440,92.020 202.800,91.771 202.800 C 91.522 202.800,90.754 203.340,90.063 204.000 C 89.372 204.660,88.575 205.200,88.292 205.200 C 88.009 205.200,87.517 205.560,87.200 206.000 C 86.883 206.440,86.386 206.800,86.096 206.800 C 85.805 206.800,84.883 207.520,84.046 208.400 C 83.209 209.280,82.327 210.000,82.086 210.000 C 81.471 210.000,71.600 219.950,71.600 220.569 C 71.600 220.848,71.240 221.402,70.800 221.800 C 70.360 222.198,70.000 222.766,70.000 223.062 C 70.000 223.358,69.820 223.600,69.600 223.600 C 69.380 223.600,69.200 223.960,69.200 224.400 C 69.200 224.840,69.064 225.200,68.898 225.200 C 68.731 225.200,68.360 225.785,68.071 226.500 C 67.783 227.215,67.379 228.113,67.174 228.495 C 66.968 228.877,66.800 229.552,66.800 229.995 C 66.800 230.438,66.620 230.800,66.400 230.800 C 64.116 230.800,68.931 237.205,72.266 238.604 C 83.468 243.302,104.770 227.512,130.214 195.652 C 131.508 194.030,132.633 192.900,132.713 193.139 C 132.793 193.379,130.235 204.067,127.029 216.890 C 123.823 229.713,121.200 240.598,121.200 241.079 C 121.200 241.560,121.020 242.064,120.800 242.200 C 120.580 242.336,120.400 243.056,120.400 243.800 C 120.400 244.544,120.220 245.264,120.000 245.400 C 119.780 245.536,119.600 246.447,119.600 247.424 C 119.600 248.401,119.420 249.200,119.200 249.200 C 118.980 249.200,118.800 250.100,118.800 251.200 C 118.800 252.300,118.620 253.200,118.400 253.200 C 118.180 253.200,118.000 254.100,118.000 255.200 C 118.000 256.300,117.820 257.200,117.600 257.200 C 117.378 257.200,117.200 258.259,117.200 259.576 C 117.200 260.883,117.020 262.064,116.800 262.200 C 116.580 262.336,116.400 263.236,116.400 264.200 C 116.400 265.164,116.220 266.064,116.000 266.200 C 115.780 266.336,115.600 267.416,115.600 268.600 C 115.600 269.784,115.420 270.864,115.200 271.000 C 114.980 271.136,114.800 272.126,114.800 273.200 C 114.800 274.274,114.620 275.264,114.400 275.400 C 114.180 275.536,114.000 276.537,114.000 277.624 C 114.000 278.711,113.820 279.600,113.600 279.600 C 113.378 279.600,113.200 280.659,113.200 281.976 C 113.200 283.283,113.020 284.464,112.800 284.600 C 112.580 284.736,112.400 285.816,112.400 287.000 C 112.400 288.184,112.220 289.264,112.000 289.400 C 111.780 289.536,111.600 290.616,111.600 291.800 C 111.600 292.984,111.420 294.064,111.200 294.200 C 110.980 294.336,110.800 295.416,110.800 296.600 C 110.800 297.784,110.620 298.864,110.400 299.000 C 110.180 299.136,110.000 300.036,110.000 301.000 C 110.000 301.964,109.820 302.864,109.600 303.000 C 109.380 303.136,109.200 304.216,109.200 305.400 C 109.200 306.584,109.020 307.664,108.800 307.800 C 108.580 307.936,108.400 308.836,108.400 309.800 C 108.400 310.764,108.220 311.664,108.000 311.800 C 107.780 311.936,107.600 313.016,107.600 314.200 C 107.600 315.384,107.420 316.464,107.200 316.600 C 106.980 316.736,106.800 317.636,106.800 318.600 C 106.800 319.564,106.620 320.464,106.400 320.600 C 106.180 320.736,106.000 321.456,106.000 322.200 C 106.000 322.944,105.820 323.664,105.600 323.800 C 105.380 323.936,105.200 324.836,105.200 325.800 C 105.200 326.764,105.020 327.664,104.800 327.800 C 104.580 327.936,104.400 328.667,104.400 329.424 C 104.400 330.181,104.208 330.800,103.973 330.800 C 103.739 330.800,103.604 331.295,103.673 331.900 L 103.800 333.000 208.800 333.000 L 313.800 333.000 313.927 331.900 C 313.996 331.295,313.861 330.800,313.627 330.800 C 313.392 330.800,313.200 330.080,313.200 329.200 C 313.200 328.320,313.020 327.600,312.800 327.600 C 312.580 327.600,312.400 327.071,312.400 326.424 C 312.400 325.777,312.220 325.136,312.000 325.000 C 311.780 324.864,311.600 323.953,311.600 322.976 C 311.600 321.999,311.420 321.200,311.200 321.200 C 310.980 321.200,310.800 320.581,310.800 319.824 C 310.800 319.067,310.620 318.336,310.400 318.200 C 310.180 318.064,310.000 317.164,310.000 316.200 C 310.000 315.236,309.820 314.336,309.600 314.200 C 309.380 314.064,309.200 313.164,309.200 312.200 C 309.200 311.236,309.020 310.336,308.800 310.200 C 308.580 310.064,308.400 309.164,308.400 308.200 C 308.400 307.236,308.220 306.336,308.000 306.200 C 307.780 306.064,307.600 304.883,307.600 303.576 C 307.600 302.259,307.422 301.200,307.200 301.200 C 306.980 301.200,306.800 300.300,306.800 299.200 C 306.800 298.100,306.620 297.200,306.400 297.200 C 306.180 297.200,306.000 296.401,306.000 295.424 C 306.000 294.447,305.820 293.536,305.600 293.400 C 305.380 293.264,305.200 292.364,305.200 291.400 C 305.200 290.436,305.020 289.536,304.800 289.400 C 304.580 289.264,304.400 288.184,304.400 287.000 C 304.400 285.816,304.220 284.736,304.000 284.600 C 303.780 284.464,303.600 283.463,303.600 282.376 C 303.600 281.289,303.420 280.400,303.200 280.400 C 302.980 280.400,302.800 279.601,302.800 278.624 C 302.800 277.647,302.620 276.736,302.400 276.600 C 302.180 276.464,302.000 275.283,302.000 273.976 C 302.000 272.659,301.822 271.600,301.600 271.600 C 301.380 271.600,301.200 270.801,301.200 269.824 C 301.200 268.847,301.020 267.936,300.800 267.800 C 300.580 267.664,300.400 266.663,300.400 265.576 C 300.400 264.489,300.220 263.600,300.000 263.600 C 299.780 263.600,299.600 262.801,299.600 261.824 C 299.600 260.847,299.420 259.936,299.200 259.800 C 298.980 259.664,298.800 258.764,298.800 257.800 C 298.800 256.836,298.620 255.936,298.400 255.800 C 298.180 255.664,298.000 254.764,298.000 253.800 C 298.000 252.836,297.820 251.936,297.600 251.800 C 297.380 251.664,297.200 250.483,297.200 249.176 C 297.200 247.859,297.022 246.800,296.800 246.800 C 296.580 246.800,296.400 245.900,296.400 244.800 C 296.400 243.700,296.220 242.800,296.000 242.800 C 295.780 242.800,295.600 242.001,295.600 241.024 C 295.600 240.047,295.420 239.136,295.200 239.000 C 294.980 238.864,294.800 237.964,294.800 237.000 C 294.800 236.036,294.620 235.136,294.400 235.000 C 294.180 234.864,294.000 233.863,294.000 232.776 C 294.000 231.689,293.820 230.800,293.600 230.800 C 293.380 230.800,293.200 229.900,293.200 228.800 C 293.200 227.700,293.020 226.800,292.800 226.800 C 292.580 226.800,292.400 225.900,292.400 224.800 C 292.400 223.700,292.220 222.800,292.000 222.800 C 291.780 222.800,291.600 222.001,291.600 221.024 C 291.600 220.047,291.420 219.136,291.200 219.000 C 290.980 218.864,290.800 218.144,290.800 217.400 C 290.800 216.656,290.620 215.936,290.400 215.800 C 290.180 215.664,290.000 214.764,290.000 213.800 C 290.000 212.836,289.820 211.936,289.600 211.800 C 289.380 211.664,289.200 210.663,289.200 209.576 C 289.200 208.489,289.020 207.600,288.800 207.600 C 288.580 207.600,288.400 207.069,288.400 206.420 C 288.400 205.771,288.156 205.096,287.858 204.920 C 287.560 204.744,287.215 204.150,287.091 203.600 C 286.851 202.534,285.689 198.148,284.602 194.200 C 284.238 192.880,283.489 190.090,282.937 188.000 C 282.384 185.910,281.780 183.660,281.594 183.000 C 281.006 180.915,279.550 175.456,279.195 174.000 C 279.007 173.230,278.674 171.970,278.454 171.200 C 278.235 170.430,277.696 168.450,277.256 166.800 C 274.760 157.429,274.792 158.093,276.870 158.741 C 281.143 160.073,290.821 160.329,296.800 159.270 C 310.892 156.771,323.077 146.444,330.979 130.300 C 332.244 127.715,333.442 125.600,333.640 125.600 C 334.135 125.600,334.097 119.307,333.600 119.000 C 333.380 118.864,333.200 117.874,333.200 116.800 C 333.200 115.726,333.020 114.736,332.800 114.600 C 332.580 114.464,332.400 113.834,332.400 113.200 C 332.400 112.566,332.220 111.936,332.000 111.800 C 331.780 111.664,331.600 111.203,331.600 110.776 C 331.600 110.349,331.465 109.999,331.300 109.997 C 330.963 109.993,330.000 108.075,330.000 107.409 C 330.000 107.171,329.640 106.717,329.200 106.400 C 328.760 106.083,328.400 105.542,328.400 105.198 C 328.400 104.854,327.867 104.257,327.215 103.872 C 326.563 103.487,325.775 102.918,325.464 102.607 C 324.564 101.707,322.046 100.400,321.211 100.400 C 320.791 100.400,320.336 100.220,320.200 100.000 C 320.063 99.779,318.263 99.600,316.176 99.600 C 313.925 99.600,312.400 99.762,312.400 100.000 C 312.400 100.220,312.164 100.400,311.875 100.400 C 311.587 100.400,310.964 100.760,310.492 101.200 C 310.020 101.640,309.401 102.009,309.117 102.020 C 308.833 102.031,307.880 102.947,307.000 104.056 C 306.120 105.165,304.995 106.498,304.500 107.018 C 304.005 107.538,303.600 108.242,303.600 108.582 C 303.600 108.922,303.450 109.200,303.268 109.200 C 303.085 109.200,302.681 109.695,302.370 110.300 C 302.060 110.905,301.489 111.691,301.103 112.047 C 300.716 112.403,300.400 112.881,300.400 113.109 C 300.400 113.666,298.679 116.965,298.300 117.133 C 298.135 117.207,298.000 117.612,298.000 118.033 C 298.000 118.455,297.850 118.800,297.668 118.800 C 297.485 118.800,297.081 119.295,296.770 119.900 C 296.460 120.505,295.889 121.291,295.503 121.647 C 295.116 122.003,294.800 122.548,294.800 122.859 C 294.800 123.169,294.440 123.683,294.000 124.000 C 293.560 124.317,293.200 124.820,293.200 125.118 C 293.200 125.848,284.279 134.800,283.552 134.800 C 283.236 134.800,282.717 135.160,282.400 135.600 C 282.083 136.040,281.543 136.400,281.200 136.400 C 280.857 136.400,280.317 136.760,280.000 137.200 C 279.683 137.640,279.103 138.000,278.712 138.000 C 278.320 138.000,278.000 138.180,278.000 138.400 C 278.000 138.620,277.640 138.800,277.200 138.800 C 276.760 138.800,276.400 138.980,276.400 139.200 C 276.400 139.420,275.860 139.600,275.200 139.600 C 274.540 139.600,274.000 139.780,274.000 140.000 C 274.000 140.220,273.460 140.400,272.800 140.400 C 271.699 140.400,271.600 140.286,271.600 139.024 C 271.600 138.267,271.420 137.536,271.200 137.400 C 270.980 137.264,270.800 136.443,270.800 135.576 C 270.800 134.709,270.620 134.000,270.400 134.000 C 270.180 134.000,270.000 133.561,270.000 133.024 C 270.000 132.487,269.820 131.936,269.600 131.800 C 269.380 131.664,269.200 130.843,269.200 129.976 C 269.200 129.109,269.020 128.400,268.800 128.400 C 268.580 128.400,268.400 127.860,268.400 127.200 C 268.400 126.540,268.220 126.000,268.000 126.000 C 267.780 126.000,267.600 125.280,267.600 124.400 C 267.600 123.520,267.420 122.800,267.200 122.800 C 266.980 122.800,266.800 122.361,266.800 121.824 C 266.800 121.287,266.620 120.736,266.400 120.600 C 266.180 120.464,266.000 119.823,266.000 119.176 C 266.000 118.529,265.820 118.000,265.600 118.000 C 265.380 118.000,265.200 117.381,265.200 116.624 C 265.200 115.867,265.020 115.136,264.800 115.000 C 264.580 114.864,264.400 114.223,264.400 113.576 C 264.400 112.929,264.220 112.400,264.000 112.400 C 263.780 112.400,263.600 111.961,263.600 111.424 C 263.600 110.887,263.420 110.336,263.200 110.200 C 262.980 110.064,262.800 109.524,262.800 109.000 C 262.800 108.476,262.620 107.936,262.400 107.800 C 262.180 107.664,262.000 107.124,262.000 106.600 C 262.000 106.076,261.820 105.536,261.600 105.400 C 261.380 105.264,261.200 104.724,261.200 104.200 C 261.200 103.676,261.020 103.136,260.800 103.000 C 260.580 102.864,260.400 102.324,260.400 101.800 C 260.400 101.276,260.220 100.736,260.000 100.600 C 259.780 100.464,259.600 99.823,259.600 99.176 C 259.600 98.529,259.420 98.000,259.200 98.000 C 258.980 98.000,258.800 97.460,258.800 96.800 C 258.800 96.140,258.620 95.600,258.400 95.600 C 258.180 95.600,258.000 95.240,258.000 94.800 C 258.000 94.360,257.820 94.000,257.600 94.000 C 257.380 94.000,257.200 93.561,257.200 93.024 C 257.200 92.487,257.020 91.936,256.800 91.800 C 256.580 91.664,256.400 91.023,256.400 90.376 C 256.400 89.729,256.220 89.200,256.000 89.200 C 255.780 89.200,255.600 88.840,255.600 88.400 C 255.600 87.960,255.420 87.600,255.200 87.600 C 254.980 87.600,254.800 87.060,254.800 86.400 C 254.800 85.740,254.620 85.200,254.400 85.200 C 254.180 85.200,254.000 84.840,254.000 84.400 C 254.000 83.960,253.820 83.600,253.600 83.600 C 253.380 83.600,253.200 83.060,253.200 82.400 C 253.200 81.740,253.065 81.199,252.900 81.197 C 252.541 81.193,251.600 79.256,251.600 78.520 C 251.600 78.234,251.420 78.000,251.200 78.000 C 250.980 78.000,250.800 77.658,250.800 77.241 C 250.800 76.823,250.260 75.455,249.600 74.200 C 248.940 72.945,248.400 71.667,248.400 71.359 C 248.400 71.052,248.220 70.800,248.000 70.800 C 247.780 70.800,247.600 70.440,247.600 70.000 C 247.600 69.560,247.420 69.200,247.200 69.200 C 246.980 69.200,246.800 68.840,246.800 68.400 C 246.800 67.960,246.620 67.600,246.400 67.600 C 246.180 67.600,246.000 67.240,246.000 66.800 C 246.000 66.360,245.820 66.000,245.600 66.000 C 245.380 66.000,245.200 65.655,245.200 65.233 C 245.200 64.812,245.065 64.407,244.900 64.333 C 244.735 64.260,244.167 63.345,243.637 62.300 C 243.108 61.255,242.523 60.400,242.337 60.400 C 242.152 60.400,242.000 60.040,242.000 59.600 C 242.000 59.160,241.820 58.800,241.600 58.800 C 241.380 58.800,241.200 58.564,241.200 58.275 C 241.200 57.987,240.840 57.364,240.400 56.892 C 239.960 56.420,239.600 55.796,239.600 55.505 C 239.600 55.214,239.240 54.717,238.800 54.400 C 238.360 54.083,238.000 53.543,238.000 53.200 C 238.000 52.857,237.640 52.317,237.200 52.000 C 236.760 51.683,236.400 51.220,236.400 50.971 C 236.400 50.722,235.903 49.997,235.296 49.359 C 234.688 48.722,233.747 47.570,233.204 46.800 C 232.047 45.159,226.387 39.600,225.873 39.600 C 225.679 39.600,225.017 39.060,224.400 38.400 C 223.783 37.740,222.991 37.200,222.640 37.200 C 222.288 37.200,222.000 37.020,222.000 36.800 C 222.000 36.580,221.640 36.400,221.200 36.400 C 220.760 36.400,220.400 36.220,220.400 36.000 C 220.400 35.780,220.040 35.600,219.600 35.600 C 219.160 35.600,218.800 35.420,218.800 35.200 C 218.800 34.980,218.451 34.800,218.024 34.800 C 217.597 34.800,217.136 34.620,217.000 34.400 C 216.864 34.180,216.313 34.000,215.776 34.000 C 215.239 34.000,214.800 33.820,214.800 33.600 C 214.800 33.378,213.741 33.200,212.424 33.200 C 211.117 33.200,209.936 33.020,209.800 32.800 C 209.664 32.580,208.674 32.400,207.600 32.400 C 206.526 32.400,205.536 32.580,205.400 32.800 M188.800 91.775 C 194.060 92.476,198.317 94.014,203.692 97.156 C 208.717 100.092,208.123 100.063,212.233 97.580 C 229.922 86.895,242.198 89.653,254.160 107.000 C 259.973 115.430,260.350 118.848,255.935 123.080 C 250.811 127.991,246.163 126.452,239.996 117.800 C 238.271 115.380,235.912 112.343,234.754 111.052 L 232.650 108.703 230.025 108.914 C 226.763 109.175,222.208 110.595,223.400 110.978 C 231.208 113.489,238.221 120.090,240.622 127.186 C 247.225 146.702,222.281 163.579,196.800 156.837 C 171.088 150.033,167.333 122.390,190.708 111.988 L 192.815 111.051 190.508 110.074 C 183.616 107.158,181.038 108.700,174.460 119.674 C 170.311 126.595,162.891 127.393,159.322 121.303 C 156.524 116.529,158.605 110.767,166.548 101.296 C 173.549 92.947,179.259 90.504,188.800 91.775 M218.800 175.776 C 245.372 180.935,257.866 201.200,245.015 218.295 C 240.489 224.316,232.891 228.999,223.800 231.371 C 189.733 240.258,157.588 218.601,168.926 194.400 C 175.438 180.498,198.591 171.852,218.800 175.776 M66.178 237.635 C 66.031 237.874,66.110 238.270,66.355 238.515 C 66.682 238.842,66.800 238.726,66.800 238.080 C 66.800 237.114,66.592 236.965,66.178 237.635 M67.660 241.980 C 67.832 242.496,68.381 242.588,68.430 242.110 C 68.447 241.950,68.244 241.748,67.980 241.660 C 67.716 241.572,67.572 241.716,67.660 241.980 M68.400 243.519 C 68.400 243.694,69.120 244.541,70.000 245.400 C 71.886 247.241,72.152 246.657,70.359 244.614 C 69.173 243.264,68.400 242.832,68.400 243.519 M220.000 250.806 C 225.430 251.904,227.964 252.527,230.779 253.453 C 263.684 264.283,268.010 295.352,238.642 309.923 C 231.500 313.466,226.705 314.819,215.723 316.389 C 208.444 317.429,196.029 316.352,188.400 314.018 C 187.850 313.849,186.680 313.495,185.800 313.229 C 183.987 312.683,183.862 312.631,179.167 310.484 C 169.670 306.142,162.739 299.242,159.593 291.000 C 152.568 272.590,173.083 252.396,201.000 250.239 C 204.618 249.960,217.755 250.351,220.000 250.806 " stroke="none" fill="#aa46bb" fill-rule="evenodd"></path><path id="path4" d="M220.800 112.444 C 212.414 118.170,207.572 118.492,198.053 113.957 C 191.770 110.963,192.004 110.946,186.182 114.833 C 159.317 132.766,185.145 165.338,219.400 156.725 C 244.983 150.292,249.341 123.379,226.550 112.564 C 223.067 110.910,223.046 110.910,220.800 112.444 M211.471 125.227 C 221.444 126.588,227.370 131.942,223.500 136.094 C 215.866 144.284,195.021 142.835,191.870 133.897 C 190.579 130.231,198.327 125.850,207.871 124.849 C 208.130 124.822,209.750 124.992,211.471 125.227 M200.600 175.631 C 192.265 177.055,189.929 177.716,185.000 180.043 C 181.654 181.622,178.615 183.487,176.966 184.971 C 176.105 185.747,175.279 186.386,175.130 186.391 C 174.559 186.410,170.372 191.850,169.401 193.833 C 155.874 221.482,198.792 244.236,233.035 227.570 C 251.023 218.815,255.233 199.616,241.937 186.967 C 239.743 184.881,236.660 182.400,236.260 182.400 C 236.136 182.400,235.172 181.894,234.118 181.276 C 226.069 176.560,210.504 173.939,200.600 175.631 M216.600 192.452 C 233.700 196.895,238.418 206.050,226.755 212.158 C 226.230 212.433,225.395 212.870,224.900 213.129 C 224.405 213.388,223.647 213.777,223.215 213.994 C 216.727 217.251,197.087 217.241,193.820 213.979 C 193.611 213.771,193.144 213.600,192.782 213.600 C 190.741 213.600,184.367 208.124,183.559 205.676 C 182.279 201.797,186.531 197.325,194.800 193.856 C 199.484 191.891,211.469 191.119,216.600 192.452 M197.600 250.878 C 148.184 259.263,144.607 303.231,192.400 314.805 C 198.575 316.301,214.461 316.797,220.000 315.668 C 248.985 309.760,263.827 292.893,256.313 274.400 C 251.942 263.642,238.271 254.289,223.000 251.609 C 221.460 251.339,219.336 250.957,218.280 250.759 C 215.823 250.299,200.491 250.388,197.600 250.878 M215.000 267.185 C 229.319 268.644,241.600 276.184,241.600 283.517 C 241.600 287.190,235.587 293.419,229.963 295.573 C 229.213 295.860,227.880 296.410,227.000 296.795 C 210.425 304.052,181.950 298.292,175.823 286.444 C 171.573 278.225,186.119 268.190,204.200 266.866 C 208.366 266.561,209.072 266.582,215.000 267.185 M98.000 332.800 C 98.000 333.020,97.100 333.200,96.000 333.200 C 94.900 333.200,94.000 333.380,94.000 333.600 C 94.000 333.820,93.640 334.000,93.200 334.000 C 92.760 334.000,92.400 334.180,92.400 334.400 C 92.400 334.620,92.080 334.800,91.688 334.800 C 91.297 334.800,90.717 335.160,90.400 335.600 C 90.083 336.040,89.590 336.400,89.305 336.400 C 88.661 336.400,86.000 339.094,86.000 339.746 C 86.000 340.009,85.640 340.483,85.200 340.800 C 84.760 341.117,84.400 341.686,84.400 342.065 C 84.400 342.443,84.220 342.864,84.000 343.000 C 83.780 343.136,83.600 343.676,83.600 344.200 C 83.600 344.724,83.420 345.264,83.200 345.400 C 82.973 345.540,82.800 347.530,82.800 350.000 C 82.800 352.470,82.973 354.460,83.200 354.600 C 83.420 354.736,83.600 355.276,83.600 355.800 C 83.600 356.324,83.780 356.864,84.000 357.000 C 84.220 357.136,84.400 357.557,84.400 357.935 C 84.400 358.314,84.760 358.883,85.200 359.200 C 85.640 359.517,86.000 359.991,86.000 360.254 C 86.000 360.906,88.661 363.600,89.305 363.600 C 89.590 363.600,90.083 363.960,90.400 364.400 C 90.717 364.840,91.297 365.200,91.688 365.200 C 92.080 365.200,92.400 365.380,92.400 365.600 C 92.400 365.820,92.760 366.000,93.200 366.000 C 93.640 366.000,94.000 366.180,94.000 366.400 C 94.000 366.620,94.900 366.800,96.000 366.800 C 97.100 366.800,98.000 366.980,98.000 367.200 C 98.000 367.466,135.067 367.600,208.400 367.600 C 281.733 367.600,318.800 367.466,318.800 367.200 C 318.800 366.980,319.599 366.800,320.576 366.800 C 321.553 366.800,322.464 366.620,322.600 366.400 C 322.736 366.180,323.197 366.000,323.624 366.000 C 324.051 366.000,324.400 365.820,324.400 365.600 C 324.400 365.380,324.694 365.200,325.053 365.200 C 325.412 365.200,325.997 364.884,326.353 364.497 C 326.709 364.111,327.475 363.551,328.056 363.253 C 328.637 362.956,329.356 362.237,329.653 361.656 C 329.951 361.075,330.511 360.309,330.897 359.953 C 331.284 359.597,331.600 359.012,331.600 358.653 C 331.600 358.294,331.780 358.000,332.000 358.000 C 332.220 358.000,332.400 357.640,332.400 357.200 C 332.400 356.760,332.580 356.400,332.800 356.400 C 333.020 356.400,333.200 355.860,333.200 355.200 C 333.200 354.540,333.380 354.000,333.600 354.000 C 333.840 354.000,334.000 352.400,334.000 350.000 C 334.000 347.600,333.840 346.000,333.600 346.000 C 333.380 346.000,333.200 345.460,333.200 344.800 C 333.200 344.140,333.020 343.600,332.800 343.600 C 332.580 343.600,332.400 343.240,332.400 342.800 C 332.400 342.360,332.220 342.000,332.000 342.000 C 331.780 342.000,331.600 341.680,331.600 341.288 C 331.600 340.897,331.240 340.317,330.800 340.000 C 330.360 339.683,330.000 339.169,330.000 338.858 C 330.000 338.239,328.047 336.401,327.388 336.400 C 327.162 336.400,326.717 336.040,326.400 335.600 C 326.083 335.160,325.503 334.800,325.112 334.800 C 324.720 334.800,324.400 334.620,324.400 334.400 C 324.400 334.180,324.051 334.000,323.624 334.000 C 323.197 334.000,322.736 333.820,322.600 333.600 C 322.464 333.380,321.553 333.200,320.576 333.200 C 319.599 333.200,318.800 333.020,318.800 332.800 C 318.800 332.116,314.122 332.305,313.855 333.000 C 313.505 333.913,104.095 333.913,103.745 333.000 C 103.476 332.299,98.000 332.108,98.000 332.800 " stroke="none" fill="#8ac249" fill-rule="evenodd"></path></g></svg>